  <svg xmlns="http://www.w3.org/2000/svg" viewBox="0 0 32 32" height='50px' width='50px'>
    <path fill="#00bd7e"
      d="M27.92 13.45H5.05a1 1 0 0 0-1 1v12.47A3.08 3.08 0 0 0 7.13 30h18.71a3.08 3.08 0 0 0 3.08-3.08V14.45a1 1 0 0 0-1-1zm-1 4.16h-1.54l1.08-2.16h.46zm-5.7 0 1.08-2.16h1.92l-1.08 2.16zm-4.16 0 1.08-2.16h1.92L19 17.61zm-4.15 0L14 15.45h1.93l-1.08 2.16zm-4.16 0 1.08-2.16h1.92l-1.08 2.16zm-2.7-2.16h1.54l-1.08 2.16h-.46zm20.87 11.47A1.08 1.08 0 0 1 25.84 28H7.13a1.08 1.08 0 0 1-1.08-1.08v-7.31h20.87zM5.05 13.36a.85.85 0 0 0 .23 0L27.52 8a1 1 0 0 0 .74-1.2l-1-4a1 1 0 0 0-1.18-.8L3.85 7.35a1 1 0 0 0-.62.45 1 1 0 0 0-.12.76l1 4a1 1 0 0 0 .94.8zm5.78-5.62-.55 2.33-1.87.45L9 8.18zm4-1-.55 2.34-1.86.44.58-2.3zm4-1-.54 2.34-1.87.45.58-2.28zm4.05-1-.55 2.34-1.87.45.55-2.34zM26 6.2l-1.49.36.54-2.34.45-.1zM6.78 8.7 6.24 11l-.45.11-.5-2.09zm10.74 15.14h6.24a1 1 0 0 1 0 2h-6.24a1 1 0 0 1 0-2z"
      data-name="13 clapper"
    />
  </svg>